<?xml version="1.0" encoding="utf-8"?>
<!-- Generator: Adobe Illustrator 20.0.0, SVG Export Plug-In . SVG Version: 6.00 Build 0)  -->
<svg version="1.1" id="Layer_1" xmlns="http://www.w3.org/2000/svg" xmlns:xlink="http://www.w3.org/1999/xlink" x="0px" y="0px"
	 viewBox="0 0 350 400" style="enable-background:new 0 0 350 400;" xml:space="preserve">
<style type="text/css">
	.st0{fill:#252932;}
	.st1{fill:#FF6F39;}
	.st2{fill:#BF3931;}
	.st3{fill:#FFFFFF;}
</style>
<path class="st0" d="M-0.5,106c0-5.5,3.9-12.2,8.7-15L165.9,0c4.8-2.8,12.6-2.8,17.3,0l157.7,91c4.8,2.8,8.7,9.5,8.7,15v182
	c0,5.5-3.9,12.2-8.7,15l-157.7,91c-4.8,2.7-12.6,2.7-17.3,0L8.2,303c-4.8-2.7-8.7-9.5-8.7-15V106z"/>
<path class="st1" d="M289,119.5H184c-13.8,0-25,11.3-25,25s11.2,25,25,25h80v80c0,13.7,11.2,25,25,25s25-11.2,25-25v-105
	C314,130.8,302.8,119.5,289,119.5z"/>
<polygon class="st2" points="209.1,119.6 209,119.5 209,169.5 227.2,169.5 227.4,169.4 "/>
<path class="st3" d="M97,119.5v25v88.7v16.3c0,13.7,11.2,25,25,25s25-11.2,25-25v-16.3v-88.7v-25H97z"/>
<path class="st3" d="M60,119.5c-13.8,0-25,11.3-25,25v21v84v25h25c13.8,0,25-11.2,25-25v-23v-82v-25H60z"/>
<path class="st3" d="M289,224.5h-67.7H209v-7.7v-72.3v-25h-50v25v72.3v32.7c0,13.7,11.2,25,25,25h105c13.8,0,25-11.2,25-25v-25H289z
	"/>
</svg>
